<svg width="30" height="26" viewBox="0 0 30 26" fill="none" xmlns="http://www.w3.org/2000/svg">
<path d="M14.56 9.12843V14.1284M14.56 19.1284H14.5725M12.4225 2.70343L1.83502 20.3784C1.61673 20.7565 1.50123 21.1851 1.50001 21.6216C1.49879 22.0581 1.61189 22.4873 1.82806 22.8666C2.04423 23.2458 2.35593 23.5619 2.73216 23.7832C3.10839 24.0046 3.53602 24.1236 3.97252 24.1284H25.1475C25.584 24.1236 26.0117 24.0046 26.3879 23.7832C26.7641 23.5619 27.0758 23.2458 27.292 22.8666C27.5082 22.4873 27.6213 22.0581 27.62 21.6216C27.6188 21.1851 27.5033 20.7565 27.285 20.3784L16.6975 2.70343C16.4747 2.33606 16.1609 2.03233 15.7865 1.82153C15.4121 1.61074 14.9897 1.5 14.56 1.5C14.1304 1.5 13.7079 1.61074 13.3335 1.82153C12.9591 2.03233 12.6454 2.33606 12.4225 2.70343Z" stroke="#c9a836" stroke-width="3" stroke-linecap="round" stroke-linejoin="round"/>
</svg>
